# xmcd
#
# Track frame offsets: 
# 182
# 16565
# 33672
# 41102
# 55387
# 64107
# 72520
# 87830
# 97755
# 110842
# 123087
# 135597
# 155840
# 178600
# 186692
# 211497
# 224010
# 238077
# 247867
# 257580
# 265985
# 274985
#
# Disc length: 3765 seconds
# Submitted via: tkcNetwork 1.0
# Revision: 0
# Processed by: cddbd v1.5.1PL2 Copyright (c) Steve Scherf et al.
#
DISCID=500eb316
DTITLE=Barbara Bonney - Mozart_ Lieder
DYEAR=1900
DGENRE=
TTITLE0=An die Freude
TTITLE1=Ridente la calma
TTITLE2=Oiseaux, si tous les ans
TTITLE3=Dans un bois solitaire
TTITLE4=O Gotteslamm
TTITLE5=Komm, liebe Zither
TTITLE6=Sei du mein Trost
TTITLE7=Der Zauberer
TTITLE8=Die Zufriedenheit
TTITLE9=Das Veilchen
TTITLE10=Lied der Freiheit
TTITLE11=Die Verschweigung
TTITLE12=Lied der Trennung
TTITLE13=Als Luise die Briefe...
TTITLE14=Abendempfindung an Laura
TTITLE15=An Chloe
TTITLE16=Das Traumbild
TTITLE17=Sehnsucht nach dem Fruehlinge
TTITLE18=Der Fruehling
TTITLE19=Das Kinderspeil
TTITLE20=Maenner suche stes zu naschen
TTITLE21=Un moto di gioia
EXTD=
EXTT0=
EXTT1=
EXTT2=
EXTT3=
EXTT4=
EXTT5=
EXTT6=
EXTT7=
EXTT8=
EXTT9=
EXTT10=
EXTT11=
EXTT12=
EXTT13=
EXTT14=
EXTT15=
EXTT16=
EXTT17=
EXTT18=
EXTT19=
EXTT20=
EXTT21=
PLAYORDER=
